HIERARCHY
ROOT joint_0
{
	OFFSET 0.000000 0.000000 0.000000
	CHANNELS 6 Xposition Yposition Zposition Zrotation Yrotation Xrotation 
	JOINT joint_1
	{
		OFFSET 7.566162 2.250183 114.799927
		CHANNELS 3 Zrotation Yrotation Xrotation
		JOINT joint_2
		{
			OFFSET -5.201660 -0.414001 104.936035
			CHANNELS 3 Zrotation Yrotation Xrotation
			JOINT joint_3
			{
				OFFSET -6.923584 -0.419739 104.718018
				CHANNELS 3 Zrotation Yrotation Xrotation
				JOINT joint_4
				{
					OFFSET 3.108887 2.881104 149.449951
					CHANNELS 3 Zrotation Yrotation Xrotation
					JOINT joint_5
					{
						OFFSET 19.988770 5.920349 90.786987
						CHANNELS 3 Zrotation Yrotation Xrotation
						End Site
						{
							OFFSET 0.000000 0.000000 0.000000
						}
					}
				}
				JOINT joint_6
				{
					OFFSET 9.283936 -30.015930 84.410034
					CHANNELS 3 Zrotation Yrotation Xrotation
					JOINT joint_7
					{
						OFFSET 47.243164 -155.716736 -23.241089
						CHANNELS 3 Zrotation Yrotation Xrotation
						JOINT joint_8
						{
							OFFSET 31.323730 -15.356873 -268.798950
							CHANNELS 3 Zrotation Yrotation Xrotation
							JOINT joint_9
							{
								OFFSET 28.122314 -2.114624 -262.450012
								CHANNELS 3 Zrotation Yrotation Xrotation
								End Site
								{
									OFFSET 0.000000 0.000000 0.000000
								}
							}
						}
					}
				}
				JOINT joint_10
				{
					OFFSET -5.580566 33.311218 83.498047
					CHANNELS 3 Zrotation Yrotation Xrotation
					JOINT joint_11
					{
						OFFSET -22.773438 160.515381 -27.138062
						CHANNELS 3 Zrotation Yrotation Xrotation
						JOINT joint_12
						{
							OFFSET 27.004395 30.848877 -267.937988
							CHANNELS 3 Zrotation Yrotation Xrotation
							JOINT joint_13
							{
								OFFSET 32.625000 14.824585 -261.518005
								CHANNELS 3 Zrotation Yrotation Xrotation
								End Site
								{
									OFFSET 0.000000 0.000000 0.000000
								}
							}
						}
					}
				}
			}
		}
	}
	JOINT joint_14
	{
		OFFSET 20.623535 -83.447632 -106.174011
		CHANNELS 3 Zrotation Yrotation Xrotation
		JOINT joint_15
		{
			OFFSET 0.661865 -23.563843 -459.915039
			CHANNELS 3 Zrotation Yrotation Xrotation
			JOINT joint_16
			{
				OFFSET -23.461670 -28.727966 -444.760971
				CHANNELS 3 Zrotation Yrotation Xrotation
				JOINT joint_17
				{
					OFFSET 178.992920 54.047363 -80.113001
					CHANNELS 3 Zrotation Yrotation Xrotation
					End Site
					{
						OFFSET 0.000000 0.000000 0.000000
					}
				}
			}
		}
	}
	JOINT joint_18
	{
		OFFSET -19.571533 84.686279 -105.380005
		CHANNELS 3 Zrotation Yrotation Xrotation
		JOINT joint_19
		{
			OFFSET -22.949951 3.639404 -459.933044
			CHANNELS 3 Zrotation Yrotation Xrotation
			JOINT joint_20
			{
				OFFSET -33.690674 4.092651 -445.010971
				CHANNELS 3 Zrotation Yrotation Xrotation
				JOINT joint_21
				{
					OFFSET 187.419678 18.953857 -76.759001
					CHANNELS 3 Zrotation Yrotation Xrotation
					End Site
					{
						OFFSET 0.000000 0.000000 0.000000
					}
				}
			}
		}
	}
}
MOTION
Frames: 13
Frame Time: 0.016667
-3332.411377 975.760010 1112.618042 -9.122413 0.029565 -0.475500 0.283426 -0.748011 0.146965 0.279393 0.083963 0.015344 0.277802 -0.131374 0.002104 0.039151 1.171564 -0.489965 0.000000 0.000000 0.000000 -1.765605 2.590634 -0.106303 0.033111 2.645548 0.951421 0.150033 0.111696 1.331301 0.000000 0.000000 0.000000 0.771355 1.763134 -0.097741 -0.087344 1.215012 -2.953722 0.485458 0.669785 3.374011 0.000000 0.000000 0.000000 -0.367774 0.348577 -0.098320 -0.318256 -0.652074 -0.206962 -0.333999 -0.684619 0.057344 0.000000 0.000000 0.000000 0.851704 0.785799 1.026292 0.866668 -0.740834 0.427400 0.860712 -1.129363 0.466726 0.000000 0.000000 0.000000 
-3330.987549 975.841919 1112.560059 -8.992349 0.385546 -0.560372 0.338704 -0.664332 0.119460 0.337093 0.082160 0.022037 0.334560 -0.117250 -0.006809 0.040268 0.477951 -0.312885 0.000000 0.000000 0.000000 -1.525443 2.884271 -0.260673 -0.008900 2.966886 0.750181 0.250830 -0.533584 2.076993 0.000000 0.000000 0.000000 0.741507 1.846941 -0.032262 -0.069697 1.283778 -3.048325 0.441342 0.218661 3.274624 0.000000 0.000000 0.000000 -0.400989 0.077581 -0.036095 -0.361254 -0.707345 -0.175472 -0.379736 -0.652792 0.027305 0.000000 0.000000 0.000000 0.808089 0.485254 1.109824 0.829384 -0.789087 0.418848 0.823974 -1.138599 0.452627 0.000000 0.000000 0.000000 
-3329.109863 975.970276 1112.447998 -8.823281 0.880335 -0.675592 0.379445 -0.639554 0.092050 0.380461 0.089657 0.027315 0.377183 -0.113718 -0.013534 0.045486 -0.423333 -0.085792 0.000000 0.000000 0.000000 -1.069476 3.244972 -0.495850 -0.049418 3.407283 0.536014 0.373846 -1.291236 2.968895 0.000000 0.000000 0.000000 0.785071 2.005552 0.094467 -0.049928 1.394570 -3.229112 0.386997 -0.337281 3.137229 0.000000 0.000000 0.000000 -0.444727 -0.300041 0.045419 -0.418190 -0.795995 -0.125379 -0.441410 -0.601908 -0.015596 0.000000 0.000000 0.000000 0.753403 0.070324 1.224470 0.783208 -0.871770 0.406243 0.778627 -1.138786 0.434086 0.000000 0.000000 0.000000 
-3326.861572 976.134277 1112.326050 -8.647263 1.447794 -0.818228 0.395604 -0.731093 0.067524 0.399992 0.106208 0.035344 0.395864 -0.131636 -0.018079 0.047414 -1.196778 0.132300 0.000000 0.000000 0.000000 -0.695052 3.507515 -0.649035 -0.067998 3.723122 0.366409 0.450588 -1.620478 3.554415 0.000000 0.000000 0.000000 0.837494 2.179130 0.202730 -0.038133 1.524420 -3.381539 0.346578 -0.647949 2.979292 0.000000 0.000000 0.000000 -0.503260 -0.714096 0.151094 -0.489696 -0.926133 -0.067413 -0.519987 -0.550812 -0.066093 0.000000 0.000000 0.000000 0.713808 -0.383572 1.367204 0.753170 -0.994327 0.395862 0.749161 -1.145870 0.422734 0.000000 0.000000 0.000000 
-3324.224121 976.319946 1112.209961 -8.466629 2.112252 -0.999453 0.370328 -1.051346 0.045854 0.380118 0.137783 0.044449 0.375443 -0.188061 -0.015290 0.035281 -1.683447 0.335281 0.000000 0.000000 0.000000 -0.512139 3.574054 -0.653034 -0.054113 3.786241 0.263778 0.447426 -1.085397 3.637477 0.000000 0.000000 0.000000 0.882185 2.377675 0.275562 -0.043481 1.689746 -3.486478 0.330336 -0.513247 2.797524 0.000000 0.000000 0.000000 -0.581623 -1.176177 0.293409 -0.579875 -1.127180 -0.000833 -0.621764 -0.498586 -0.127255 0.000000 0.000000 0.000000 0.704423 -0.887288 1.552155 0.754953 -1.185830 0.387911 0.750916 -1.157407 0.424604 0.000000 0.000000 0.000000 
-3321.214844 976.540222 1112.084961 -8.280504 2.850350 -1.207444 0.318304 -1.488656 0.027567 0.335161 0.177363 0.051761 0.330387 -0.264452 -0.007407 0.014801 -2.038120 0.539052 0.000000 0.000000 0.000000 -0.401810 3.535401 -0.588248 -0.019302 3.722956 0.202102 0.404145 -0.098733 3.437879 0.000000 0.000000 0.000000 0.935263 2.590888 0.328940 -0.058633 1.873335 -3.565874 0.327803 -0.133534 2.604542 0.000000 0.000000 0.000000 -0.675267 -1.675084 0.461353 -0.685230 -1.369799 0.073945 -0.741580 -0.442206 -0.197670 0.000000 0.000000 0.000000 0.709820 -1.431383 1.764750 0.772798 -1.417483 0.380035 0.768185 -1.170849 0.433000 0.000000 0.000000 0.000000 
-3317.972900 976.826172 1111.951050 -8.117285 3.526534 -1.408549 0.277165 -1.769659 0.020537 0.299845 0.204972 0.052322 0.295501 -0.315196 -0.000247 -0.000231 -2.390021 0.718166 0.000000 0.000000 0.000000 -0.305281 3.498834 -0.536044 0.012807 3.673114 0.170820 0.358379 0.628404 3.154476 0.000000 0.000000 0.000000 0.982244 2.730099 0.346479 -0.073284 1.997178 -3.587897 0.331166 0.243513 2.453224 0.000000 0.000000 0.000000 -0.772727 -2.110923 0.626093 -0.793670 -1.571041 0.145785 -0.861165 -0.400540 -0.263496 0.000000 0.000000 0.000000 0.710955 -1.912749 1.961159 0.785334 -1.605599 0.376880 0.779871 -1.209816 0.441672 0.000000 0.000000 0.000000 
-3314.625488 977.192383 1111.828979 -7.989319 4.054784 -1.587064 0.262223 -1.751463 0.024446 0.287287 0.212125 0.045403 0.283922 -0.321987 0.005602 -0.005383 -2.780880 0.863905 0.000000 0.000000 0.000000 -0.208872 3.493705 -0.533545 0.029534 3.690118 0.200971 0.308670 0.785813 2.767010 0.000000 0.000000 0.000000 1.022642 2.740617 0.315812 -0.087827 2.010386 -3.535917 0.342869 0.579796 2.381151 0.000000 0.000000 0.000000 -0.870676 -2.411790 0.774355 -0.899670 -1.701190 0.210859 -0.972924 -0.371841 -0.321897 0.000000 0.000000 0.000000 0.703295 -2.260433 2.121197 0.786555 -1.712179 0.384116 0.780335 -1.291015 0.450009 0.000000 0.000000 0.000000 
-3311.046387 977.623169 1111.697998 -7.884124 4.519173 -1.759715 0.260621 -1.575083 0.037872 0.285260 0.209674 0.033556 0.283279 -0.307960 0.011615 -0.005332 -3.170215 0.984431 0.000000 0.000000 0.000000 -0.128486 3.488967 -0.549898 0.040641 3.723166 0.269443 0.252184 0.686886 2.289491 0.000000 0.000000 0.000000 1.055506 2.679623 0.258841 -0.102724 1.963107 -3.439231 0.360369 0.913248 2.352268 0.000000 0.000000 0.000000 -0.972175 -2.648103 0.918774 -1.008250 -1.789473 0.273592 -1.083461 -0.359710 -0.374717 0.000000 0.000000 0.000000 0.691753 -2.542973 2.265331 0.782653 -1.774796 0.397941 0.775697 -1.401572 0.459213 0.000000 0.000000 0.000000 
-3306.994141 978.094543 1111.495972 -7.796047 5.039431 -1.941374 0.270605 -1.393184 0.059327 0.294013 0.201771 0.024576 0.292982 -0.283600 0.013349 0.000191 -3.572298 1.083060 0.000000 0.000000 0.000000 -0.056108 3.498872 -0.571101 0.048532 3.758633 0.295606 0.216095 0.553106 1.972646 0.000000 0.000000 0.000000 1.062481 2.626019 0.213448 -0.108587 1.928398 -3.335534 0.366688 1.106980 2.306469 0.000000 0.000000 0.000000 -1.075236 -2.935415 1.069309 -1.123133 -1.839202 0.335386 -1.195127 -0.394649 -0.413747 0.000000 0.000000 0.000000 0.672912 -2.865271 2.412186 0.772086 -1.824402 0.407763 0.764074 -1.520760 0.466416 0.000000 0.000000 0.000000 
-3302.505615 978.562256 1111.198975 -7.733156 5.660934 -2.137278 0.300020 -1.238911 0.091051 0.321706 0.190249 0.015864 0.321547 -0.256016 0.013613 0.014372 -4.021033 1.155621 0.000000 0.000000 0.000000 0.010839 3.537463 -0.606655 0.051335 3.805536 0.251761 0.214643 0.412872 1.948681 0.000000 0.000000 0.000000 1.036768 2.596637 0.203987 -0.102835 1.918292 -3.245666 0.355285 1.088982 2.230759 0.000000 0.000000 0.000000 -1.180320 -3.338775 1.232628 -1.249691 -1.825011 0.397992 -1.310662 -0.485081 -0.437632 0.000000 0.000000 0.000000 0.641333 -3.281517 2.569951 0.750164 -1.853533 0.410080 0.740521 -1.654499 0.470193 0.000000 0.000000 0.000000 
-3297.542725 979.069641 1110.831055 -7.688048 6.332880 -2.341552 0.341080 -1.070272 0.128076 0.359970 0.176458 0.010051 0.360372 -0.228309 0.012062 0.034439 -4.482701 1.203480 0.000000 0.000000 0.000000 0.069089 3.591997 -0.651762 0.050104 3.859097 0.170777 0.232126 0.233343 2.082913 0.000000 0.000000 0.000000 0.988819 2.577266 0.209819 -0.088293 1.921443 -3.154226 0.332710 0.931236 2.137617 0.000000 0.000000 0.000000 -1.287000 -3.786245 1.401424 -1.382545 -1.773982 0.459064 -1.427563 -0.618111 -0.449127 0.000000 0.000000 0.000000 0.602632 -3.730709 2.729618 0.721380 -1.871241 0.408690 0.709902 -1.792870 0.471532 0.000000 0.000000 0.000000 
-3291.753906 979.723267 1110.401978 -7.632278 7.031738 -2.552187 0.364950 -0.925459 0.167215 0.380550 0.161375 0.004856 0.381472 -0.205994 0.011105 0.051912 -4.859266 1.234438 0.000000 0.000000 0.000000 0.128564 3.636107 -0.673129 0.049869 3.886280 0.060880 0.250347 0.146166 2.232912 0.000000 0.000000 0.000000 0.935889 2.599521 0.191034 -0.063096 1.976486 -3.034681 0.301766 0.715000 2.006754 0.000000 0.000000 0.000000 -1.391760 -4.188721 1.565273 -1.508865 -1.768573 0.513797 -1.540188 -0.789254 -0.446999 0.000000 0.000000 0.000000 0.568138 -4.147151 2.883973 0.696444 -1.930730 0.404531 0.683542 -1.889580 0.470378 0.000000 0.000000 0.000000 
